<svg width="273" height="274" viewBox="0 0 273 274" fill="none" xmlns="http://www.w3.org/2000/svg">
<g filter="url(#filter0_d)">
<circle cx="131" cy="157" r="105" fill="#FEFEFE"/>
<path d="M228.467 119C211.467 123.457 201.266 77 179.733 77C154.799 77 144.5 119 134.5 131.5C122.5 151 113.8 163.5 90 163.5C68.4669 163.5 78 183.171 61 178.714C54.2 192.086 42.6337 155.9 41.5 171.5C41.5 174.843 24.8669 175 29 178.714C26.3669 178.714 56.8668 220.5 58 220.5C82.9332 220.5 99.7 220.5 123.5 220.5C147.3 220.5 159.7 223 183.5 223C207.3 223 207.5 231.5 207.5 214.5C231.3 214.5 204.667 178.714 228.467 178.714C231.867 180 234.133 180.786 233 180C234.633 176.786 234.552 173.5 235.5 168C238 153.5 235.267 132.371 228.467 119Z" fill="#F993D5"/>
<path d="M203.5 127C183.5 136 189.147 137 175.5 151.5C159.5 168.5 159.5 167 138 174C114.013 174 89 128 67.5 120C37.5 102 27.6421 171.5 26.5 171.5C33.3536 225.625 84.3874 269.128 141.5 262.5C189.475 256.977 228.789 219.289 234.5 174C234.941 170.5 238 150 235.5 145C232 120 229 124 203.5 127Z" fill="#F56579"/>
</g>
<defs>
<filter id="filter0_d" x="-6" y="-6" width="289" height="280" filterUnits="userSpaceOnUse" color-interpolation-filters="sRGB">
<feFlood flood-opacity="0" result="BackgroundImageFix"/>
<feColorMatrix in="SourceAlpha" type="matrix" values="0 0 0 0 0 0 0 0 0 0 0 0 0 0 0 0 0 0 127 0"/>
<feOffset dx="2" dy="2"/>
<feGaussianBlur stdDeviation="4"/>
<feColorMatrix type="matrix" values="0 0 0 0 0.996078 0 0 0 0 0.996078 0 0 0 0 0.996078 0 0 0 0.5 0"/>
<feBlend mode="normal" in2="BackgroundImageFix" result="effect1_dropShadow"/>
<feBlend mode="normal" in="SourceGraphic" in2="effect1_dropShadow" result="shape"/>
</filter>
</defs>
</svg>